# xmcd
#
# Track frame offsets: 
#        150
#        15887
#        60262
#
# Disc length: 1007 seconds
#
# Revision: 12
# Processed by: cddbd v1.5.2PL0 Copyright (c) Steve Scherf et al.
# Submitted via: ExactAudioCopyFreeDBPlugin 1.0
#
DISCID=1103ed03
DTITLE=Chicane - Saltwater
DYEAR=1999
DGENRE=Trance
TTITLE0=Saltwater (Original Radio Edit)
TTITLE1=Saltwater (Original Mix)
TTITLE2=Saltwater (Mothership Mix)
EXTD=
EXTT0=
EXTT1=
EXTT2=
PLAYORDER=
